<svg width="470" height="120" viewBox="0 0 470 120" fill="none" xmlns="http://www.w3.org/2000/svg">
<g clip-path="url(#clip0_266_195)">
<path d="M312.711 0V87.133C324.057 87.633 335.372 88.2374 346.657 88.9504V107.424C328.759 106.294 310.844 105.436 292.918 104.851V0H312.711ZM469.995 0.0104348L444.222 56.6139L469.989 119.603L469.96 119.615C462.448 118.602 454.928 117.639 447.401 116.725L432.931 81.3722L418.324 113.443C411.394 112.718 404.46 112.034 397.521 111.391L422.646 56.2348L399.636 0.0113043H421.047L433.931 31.4757L448.256 0.0104348H469.995ZM224.988 103.936V0.00956522H280.239V18.6496H244.781V42.8061H271.609V61.28H244.781V103.932L224.988 103.936ZM151.081 18.6504V0.00869565H212.299V18.6496H191.585V104.441C184.979 104.606 178.38 104.799 171.794 105.035V18.6504H151.081ZM83.4167 110.405V0.0121739H138.393V18.6513H103.207V43.9C111.29 43.8017 122.784 43.6913 129.935 43.707V62.1826C120.984 62.0783 110.88 62.2991 103.207 62.3713V90.34C114.927 89.4651 126.656 88.7057 138.393 88.0617V106.537C120.046 107.54 101.718 108.83 83.4167 110.407V110.405ZM44.5901 67.6991L44.5892 0.00869565H64.3821V112.148C57.1468 112.852 49.9243 113.603 42.7157 114.395L19.7954 52.0209V117.066C13.1928 117.88 6.59535 118.731 0.00341797 119.619V0.0104348H18.8131L44.5892 67.6991H44.5901ZM362.985 108.538V0.0104348H382.779V110.087C376.189 109.53 369.593 109.017 362.985 108.539V108.538Z" fill="#DB202C"/>
</g>
<defs>
<clipPath id="clip0_266_195">
<rect width="470" height="120" fill="white"/>
</clipPath>
</defs>
</svg>
